/* XPM */
static char * collectible_xpm[] = {
"64 64 254 2",
"  	c #FFFFFF",
". 	c #FEFEFE",
"+ 	c #FDFDFD",
"@ 	c #FBFBFB",
"# 	c #FAFAFA",
"$ 	c #F8F8F8",
"% 	c #FCFCFC",
"& 	c #F9F9F9",
"* 	c #F6F6F6",
"= 	c #F4F4F4",
"- 	c #F3F3F3",
"; 	c #F5F5F5",
"> 	c #F2F2F2",
", 	c #F1F1F1",
"' 	c #EEEEEE",
") 	c #ECECEC",
"! 	c #EBEBEB",
"~ 	c #E8E8E8",
"{ 	c #E9E9E9",
"] 	c #EDEDED",
"^ 	c #EAEAEA",
"/ 	c #E6E6E6",
"( 	c #E3E3E3",
"_ 	c #E2E2E2",
": 	c #DEDEDE",
"< 	c #DDDDDD",
"[ 	c #DFDFDF",
"} 	c #E0E0E0",
"| 	c #E5E5E5",
"1 	c #D8D8D8",
"2 	c #D7D7D7",
"3 	c #D1D1D1",
"4 	c #CECECE",
"5 	c #CDCDCD",
"6 	c #D0D0D0",
"7 	c #D6D6D6",
"8 	c #DADADA",
"9 	c #E7E7E7",
"0 	c #F0F0F0",
"a 	c #E1E1E1",
"b 	c #D3D3D3",
"c 	c #CACACA",
"d 	c #C5C5C5",
"e 	c #C3C3C3",
"f 	c #BFBFBF",
"g 	c #BCBCBC",
"h 	c #BBBBBB",
"i 	c #C1C1C1",
"j 	c #CFCFCF",
"k 	c #D5D5D5",
"l 	c #F7F7F7",
"m 	c #D9D9D9",
"n 	c #CCCCCC",
"o 	c #BEBEBE",
"p 	c #B8B8B8",
"q 	c #B3B3B3",
"r 	c #AFAFAF",
"s 	c #ABABAB",
"t 	c #A9A9A9",
"u 	c #A8A8A8",
"v 	c #AEAEAE",
"w 	c #B2B2B2",
"x 	c #CBCBCB",
"y 	c #C4C4C4",
"z 	c #ACACAC",
"A 	c #A5A5A5",
"B 	c #9F9F9F",
"C 	c #999999",
"D 	c #969696",
"E 	c #939393",
"F 	c #919191",
"G 	c #979797",
"H 	c #9D9D9D",
"I 	c #E4E4E4",
"J 	c #DBDBDB",
"K 	c #C8C8C8",
"L 	c #B5B5B5",
"M 	c #AAAAAA",
"N 	c #A0A0A0",
"O 	c #8A8A8A",
"P 	c #858585",
"Q 	c #808080",
"R 	c #7D7D7D",
"S 	c #7C7C7C",
"T 	c #848484",
"U 	c #989898",
"V 	c #BDBDBD",
"W 	c #C7C7C7",
"X 	c #DCDCDC",
"Y 	c #BABABA",
"Z 	c #A2A2A2",
"` 	c #8E8E8E",
" .	c #838383",
"..	c #7A7A7A",
"+.	c #747474",
"@.	c #6E6E6E",
"#.	c #6A6A6A",
"$.	c #666666",
"%.	c #676767",
"&.	c #6F6F6F",
"*.	c #828282",
"=.	c #8C8C8C",
"-.	c #ADADAD",
";.	c #797979",
">.	c #5E5E5E",
",.	c #585858",
"'.	c #545454",
").	c #505050",
"!.	c #4F4F4F",
"~.	c #515151",
"{.	c #575757",
"].	c #646464",
"^.	c #787878",
"/.	c #909090",
"(.	c #9C9C9C",
"_.	c #B7B7B7",
":.	c #C2C2C2",
"<.	c #EFEFEF",
"[.	c #9B9B9B",
"}.	c #7E7E7E",
"|.	c #727272",
"1.	c #5B5B5B",
"2.	c #535353",
"3.	c #4A4A4A",
"4.	c #434343",
"5.	c #3F3F3F",
"6.	c #3B3B3B",
"7.	c #3A3A3A",
"8.	c #3C3C3C",
"9.	c #3D3D3D",
"0.	c #5A5A5A",
"a.	c #717171",
"b.	c #8B8B8B",
"c.	c #A7A7A7",
"d.	c #B4B4B4",
"e.	c #D2D2D2",
"f.	c #9A9A9A",
"g.	c #7B7B7B",
"h.	c #6C6C6C",
"i.	c #484848",
"j.	c #3E3E3E",
"k.	c #373737",
"l.	c #303030",
"m.	c #2C2C2C",
"n.	c #282828",
"o.	c #272727",
"p.	c #2B2B2B",
"q.	c #363636",
"r.	c #464646",
"s.	c #5D5D5D",
"t.	c #888888",
"u.	c #B6B6B6",
"v.	c #C6C6C6",
"w.	c #6B6B6B",
"x.	c #4C4C4C",
"y.	c #404040",
"z.	c #353535",
"A.	c #242424",
"B.	c #1F1F1F",
"C.	c #1A1A1A",
"D.	c #181818",
"E.	c #171717",
"F.	c #161616",
"G.	c #1E1E1E",
"H.	c #252525",
"I.	c #343434",
"J.	c #595959",
"K.	c #696969",
"L.	c #898989",
"M.	c #C9C9C9",
"N.	c #A1A1A1",
"O.	c #4B4B4B",
"P.	c #1C1C1C",
"Q.	c #151515",
"R.	c #101010",
"S.	c #0C0C0C",
"T.	c #0A0A0A",
"U.	c #090909",
"V.	c #1B1B1B",
"W.	c #2E2E2E",
"X.	c #494949",
"Y.	c #9E9E9E",
"Z.	c #B1B1B1",
"`.	c #C0C0C0",
" +	c #959595",
".+	c #707070",
"++	c #222222",
"@+	c #060606",
"#+	c #040404",
"$+	c #030303",
"%+	c #050505",
"&+	c #0F0F0F",
"*+	c #202020",
"=+	c #6D6D6D",
"-+	c #A4A4A4",
";+	c #B0B0B0",
">+	c #777777",
",+	c #636363",
"'+	c #2F2F2F",
")+	c #0D0D0D",
"!+	c #020202",
"~+	c #010101",
"{+	c #4E4E4E",
"]+	c #5F5F5F",
"^+	c #818181",
"/+	c #454545",
"(+	c #000000",
"_+	c #0B0B0B",
":+	c #313131",
"<+	c #424242",
"[+	c #555555",
"}+	c #292929",
"|+	c #0E0E0E",
"1+	c #606060",
"2+	c #757575",
"3+	c #D4D4D4",
"4+	c #323232",
"5+	c #131313",
"6+	c #080808",
"7+	c #070707",
"8+	c #111111",
"9+	c #656565",
"0+	c #A6A6A6",
"a+	c #4D4D4D",
"b+	c #383838",
"c+	c #121212",
"d+	c #212121",
"e+	c #626262",
"f+	c #141414",
"g+	c #5C5C5C",
"h+	c #737373",
"i+	c #B9B9B9",
"j+	c #262626",
"k+	c #949494",
"l+	c #525252",
"m+	c #2A2A2A",
"n+	c #616161",
"o+	c #A3A3A3",
"p+	c #929292",
"q+	c #191919",
"r+	c #393939",
"s+	c #767676",
"t+	c #868686",
"u+	c #232323",
"v+	c #333333",
"w+	c #7F7F7F",
"x+	c #1D1D1D",
"y+	c #2D2D2D",
"z+	c #444444",
"A+	c #414141",
"B+	c #8D8D8D",
"C+	c #565656",
"D+	c #878787",
"E+	c #8F8F8F",
"                                                                                                                                ",
"                                                                                                                                ",
"                                                                                                                                ",
"                                                                                                                                ",
"                                                  . . . . . .                                                                   ",
"                                          . . . . . + @ # # $ $ $ # @ %                                                         ",
"                                    . . . + + @ # & * * = - - - = ; ; $ $ # % %                                                 ",
"                                . . . + @ & $ - > , ' ) ! ! ~ { { ! ] ' , = ; ; @ % %                                           ",
"                              . . + # & $ > , ' ^ / ( _ : < < < < [ } | / { ' , ; * @ % %                                       ",
"                          . . + % # $ ; ' ) / | : 1 2 3 3 4 5 5 4 6 3 7 8 : ( 9 ^ , > $ % %                                     ",
"                        . . + # $ ; 0 ! | a 8 b 4 c d e f g h h g f i d c j k 8 } 9 ! , * $ % %                                 ",
"                      . . + # l = ] ~ a m b n d o p q r s t u u t s v w p o d x b 8 a ~ ' - $ % %                               ",
"                    . . + # l = ) 9 : k 5 y g q z A B C D E F F E G C H A z w h y n 7 < / ' - $ % %                             ",
"                  . . + # l - ! I J b K o L M N C F O P Q R S S R Q T O F U N u q V W 3 X | ! - $ % %                           ",
"                  . + # l - ! I J j d Y r Z U `  ...+.@.#.$.$.%.%.#.&.+...*.=.G Z -.p e j 8 I ) - $ % %                         ",
"                . + % $ = ' I J j y p s H F P ;.&.$.>.,.'.).).!.~.'.{.>.].@.^.T /.(.t _.:.4 8 I ) ; & %                         ",
"              . . % & = <./ < b e _.M [.=.}.|.$.1.2.3.4.5.6.7.7.8.9.4.3.~.0.].a.}.b.C c.d.e e.J | ' ; & %                       ",
"              . + # l - 9 a k K p M f.O g.h.>.2.i.j.k.l.m.n.o.o.n.p.l.q.j.r.~.s.#.;.t.G u u.v.e.[ { 0 $ % %                     ",
"            . . % & = ' ( 2 x V z (.O ..w.1.x.y.z.m.A.B.C.D.E.F.E.C.G.H.p.I.5.x.J.K.^.L.C M Y M.2 _ ) ; & %                     ",
"            . + # l 0 9 [ e.i w N.` }.w.1.O.8.l.H.P.Q.R.S.T.U.U.T.S.R.Q.V.A.W.6.X.,.#.g.=.Y.Z.`.j J ~ 0 ; % %                   ",
"            . + & = ' ( 2 M.Y u  + ..+s.O.6.W.++F.R.T.@+#+$+$+$+$+#+%+U.&+E.*+m.7.X.1.=+Q E -+u.W 7 ( ) ; & %                   ",
"          . + % $ - ! [ e.y ;+B b.>+,+).5.'+*+F.)+@+$+!+~+~+~+~+~+~+!+$+@+S.Q.*+m.8.{+]++.t.f.v f j < { > & %                   ",
"          . + & ; <./ J 5 h t D ^+h.,./+I.A.E.)+@+!+~+(+(+(+(+(+(+(+(+~+!+%+_+Q.++:+<+[+#.}.E c._.M.2 ( ] ; & %                 ",
"          . + & = ' _ 7 v.u.Z ` ^.].{+7.}+V.|+@+!+~+(+(+(+(+(+(+(+(+(+(+~+!+%+S.D.o.k.O.1+2+O H w y 3+a ) = & %                 ",
"          . + & = ) } e.e ;+[.P a.0.r.4+++5+6+$+~+(+(+(+(+(+(+(+(+(+(+(+(+~+!+7+8+G.'+<+{.h.^+G z o 6 [ { > & %                 ",
"        . . % $ - ! : j i s U ^+w.'.y.m.V.|+%+~+(+(+(+(+(+(+(+(+(+(+(+(+(+(+~+#+S.D.}+8.).9+S F c.Y n X { > & %                 ",
"        . + # l , { X 4 Y t E R $.!.6.n.D._+#+~+(+(+(+(+(+(+(+(+(+(+(+(+(+(+~+$+6+Q.A.k.x.1+^.` Z u.K 2 | ' ; % %               ",
"        . + # ; 0 I J x p 0+/...,+a+b+H.Q.U.$+(+(+(+(+(+(+(+(+(+(+(+(+(+(+(+(+!+@+c+d+I.i.]++.=.N q d 7 ( ) ; & %               ",
"        . + # ; 0 I J x p 0+/.;.e+3.z.A.f+6+!+(+(+(+(+(+(+(+(+(+(+(+(+(+(+(+(+!+@+R.B.:+r.g+h+O B q d 7 ( ) ; & %               ",
"        . + # ; 0 I J x p c./...e+O.k.A.f+6+!+(+(+(+(+(+(+(+(+(+(+(+(+(+(+(+(+!+@+R.B.:+r.g+h+O B q d 7 ( ) ; & %               ",
"        . . # ; 0 | J x i+c.F g.9+!.7.j+F.U.$+~+(+(+(+(+(+(+(+(+(+(+(+(+(+(+(+!+@+c+d+I.i.]+2+=.N q v.7 ( ) ; & %               ",
"          . @ $ > ! X j g t k+}.K.l+j.m+C.)+#+~+(+(+(+(+(+(+(+(+(+(+(+(+(+(+~+$+6+Q.A.b+a+n+^.` o+_.M.1 | ' ; % %               ",
"          . + & = ) } 3 :.-.C T @.{.4.l.B.8+7+!+~+(+(+(+(+(+(+(+(+(+(+(+(+(+~+#+S.C.}+8.).$.S p+c.h n X { > & %                 ",
"          . + & ; ] a 3+d q N b.+.>.X.k.H.F._+#+~+(+(+(+(+(+(+(+(+(+(+(+(+~+$+7+c+B.l.4.{.=+*.U -.o 6 [ { > & %                 ",
"          . + # ; 0 I m M.Y 0+p+R %.2.y.W.B.c+6+$+~+(+(+(+(+(+(+(+(+(+(+~+!+@+)+q+o.r+x.1+s+O B q y 3+a ) = & %                 ",
"            . @ * , ~ < 3 f r f.t+|.]+O.7.m+V.R.6+#+!+~+~+(+(+(+(+(+(+~+$+%+S.F.u+v+4.{.#.w+k+u p c 1 ( ] ; & %                 ",
"            . + # ; ] _ 7 W d.o+F R K.{./+z.o.V.8+T.%+$+!+~+~+~+~+~+!+#+7+)+F.d+'+j.).n+s+L.(.r `.6 : { > & %                   ",
"            . . # * , / 8 n f -.(.L.s+,+l+4.I.n.x+Q.)+U.@+#+$+#+#+%+7+_+8+D.++y+8.O.g+&.^+E 0+_.K 7 ( ) ; & %                   ",
"              . @ & - ^ _ 7 v._.c. +T h+n+l+z+b+m.++C.Q.R.)+)+S.)+&+c+E.G.j+:+9.x.1.w.}.` B w i 6 X ~ 0 ; % %                   ",
"              . . # * , 9 X 6 :.q Z p+*.h+,+2.i.9.v+p.A.*+x+V.C.V.x+++n.'+k.<+{+1.#.g.b.[.z g x 2 ( ) ; & %                     ",
"                . @ & ; ! | m 4 o ;+N.E *.+.$.0.!./+j.k.:+W.m.p.y+l.I.7.<+X.[+n+=+S O C M p v.b } { 0 $ % %                     ",
"                  . @ l > ^ [ 7 M.o ;+Z k+t+;.h.e+0.l+3./+A+y.5.y.4.i.{+[+]+K.+.^+B+[.t _.d b X / ' ; & %                       ",
"                  . . @ l > ~ [ k M.o w A U =.^+s+=+$.]+1.C+[+C+C+,.g+,+K.|.S D+p+B z i+y 6 J | ) ; & %                         ",
"                    . % # l <.{ [ k x `.L s B  +=. .S s+a.=+h.=+w.&.h+;.Q D+E+f.A r h d 6 J | ) - $ % %                         ",
"                      . % # l <.{ a 1 j d h Z.u N U F b.D+T ^+*. .T L.B+E (.Z s u.`.M.b < / ) - $ % %                           ",
"                        . % # l 0 ) ( 8 b c e h q z 0+N (.f.G G U (.Y.Z t ;+u.o v.4 2 : 9 ' - $ % %                             ",
"                          . % # $ , ] / [ 1 3 n d f Y L w r v z v Z.w _.V :.K 4 k X _ { <.- $ % %                               ",
"                              % @ $ - 0 ^ / } m 3+6 x K d i `.`.`.e v.M.5 e.1 < _ { ) > * $ % %                                 ",
"                                . % @ $ > 0 ^ 9 ( < X 7 7 e.e.3 3 3+3+m < } | ~ ) > - $ % %                                     ",
"                                    % @ @ ; = > ' ^ 9 / a a a } a a _ 9 ~ ! 0 > * * @ % %                                       ",
"                                        + @ @ * ; ; , <.' ' ) ) ) ' <.0 - ; * * @ % %                                           ",
"                                              + % @ $ $ * ; ; = ; * * & & @ % %                                                 ",
"                                                      + % % & & & @ % %                                                         ",
"                                                                                                                                ",
"                                                                                                                                ",
"                                                                                                                                ",
"                                                                                                                                ",
"                                                                                                                                ",
"                                                                                                                                ",
"                                                                                                                                ",
"                                                                                                                                ",
"                                                                                                                                ",
"                                                                                                                                ",
"                                                                                                                                "};
